<?xml version="1.0" encoding="UTF-8"?>
<svg xmlns="http://www.w3.org/2000/svg" xmlns:xlink="http://www.w3.org/1999/xlink" width="64px" height="24px" viewBox="0 0 63 24" version="1.1">
<defs>
<clipPath id="clip1">
  <path d="M 54 6 L 61.792969 6 L 61.792969 18 L 54 18 Z M 54 6 "/>
</clipPath>
</defs>
<g id="surface1">
<path style=" stroke:none;fill-rule:nonzero;fill:rgb(100%,100%,100%);fill-opacity:1;" d="M 2.714844 17.804688 L 2.714844 2.515625 L 12.546875 2.515625 L 12.546875 5.265625 L 5.800781 5.265625 L 5.800781 8.53125 L 11.484375 8.53125 L 11.484375 11.292969 L 5.800781 11.292969 L 5.800781 14.953125 L 12.546875 14.953125 L 12.546875 17.804688 Z M 2.714844 17.804688 "/>
<path style=" stroke:none;fill-rule:nonzero;fill:rgb(100%,100%,100%);fill-opacity:1;" d="M 22.765625 17.804688 L 22.765625 16.679688 C 22.238281 17.128906 21.679688 17.488281 21.097656 17.753906 C 20.515625 18.011719 19.859375 18.140625 19.113281 18.140625 C 17.667969 18.140625 16.5625 17.617188 15.796875 16.566406 C 15.027344 15.515625 14.644531 14.03125 14.644531 12.105469 C 14.644531 10.140625 15.066406 8.609375 15.90625 7.515625 C 16.75 6.425781 17.933594 5.878906 19.460938 5.878906 C 20.007812 5.878906 20.558594 5.992188 21.121094 6.21875 C 21.691406 6.441406 22.164062 6.730469 22.542969 7.078125 L 22.542969 1.355469 L 25.367188 1.355469 L 25.367188 17.804688 Z M 22.542969 9.429688 C 22.238281 9.15625 21.863281 8.914062 21.417969 8.703125 C 20.976562 8.5 20.53125 8.390625 20.082031 8.390625 C 19.320312 8.390625 18.710938 8.722656 18.25 9.378906 C 17.785156 10.039062 17.554688 10.929688 17.554688 12.054688 C 17.554688 13.171875 17.742188 14.046875 18.113281 14.679688 C 18.488281 15.3125 19.078125 15.628906 19.871094 15.628906 C 20.332031 15.628906 20.804688 15.523438 21.292969 15.304688 C 21.78125 15.089844 22.199219 14.824219 22.542969 14.503906 Z M 22.542969 9.429688 "/>
<path style=" stroke:none;fill-rule:nonzero;fill:rgb(100%,100%,100%);fill-opacity:1;" d="M 38.683594 17.578125 C 38.683594 19.128906 38.214844 20.28125 37.273438 21.03125 C 36.332031 21.785156 34.820312 22.167969 32.742188 22.167969 C 31.023438 22.167969 29.523438 21.835938 28.234375 21.179688 L 29.074219 18.84375 C 30.265625 19.398438 31.484375 19.679688 32.742188 19.679688 C 33.90625 19.679688 34.714844 19.507812 35.167969 19.167969 C 35.628906 18.832031 35.863281 18.265625 35.863281 17.46875 L 35.863281 16.515625 C 34.921875 17.375 33.789062 17.804688 32.46875 17.804688 C 31.074219 17.804688 29.96875 17.296875 29.164062 16.28125 C 28.359375 15.265625 27.960938 13.800781 27.960938 11.890625 C 27.960938 10.703125 28.148438 9.652344 28.519531 8.742188 C 28.898438 7.835938 29.449219 7.128906 30.179688 6.628906 C 30.902344 6.128906 31.78125 5.878906 32.816406 5.878906 C 33.414062 5.878906 34.019531 6.015625 34.625 6.292969 C 35.234375 6.5625 35.742188 6.898438 36.144531 7.304688 L 36.519531 6.21875 L 38.683594 6.21875 Z M 35.863281 9.429688 C 35.085938 8.738281 34.238281 8.390625 33.324219 8.390625 C 32.636719 8.390625 32.054688 8.710938 31.578125 9.34375 C 31.105469 9.976562 30.871094 10.8125 30.871094 11.855469 C 30.871094 13.03125 31.082031 13.898438 31.503906 14.453125 C 31.925781 15.015625 32.46875 15.292969 33.136719 15.292969 C 34.070312 15.292969 34.976562 14.914062 35.863281 14.15625 Z M 35.863281 9.429688 "/>
<path style=" stroke:none;fill-rule:nonzero;fill:rgb(100%,100%,100%);fill-opacity:1;" d="M 48.632812 17.804688 L 48.632812 16.605469 C 47.519531 17.628906 46.320312 18.140625 45.042969 18.140625 C 43.78125 18.140625 42.820312 17.808594 42.171875 17.140625 C 41.515625 16.46875 41.191406 15.601562 41.191406 14.542969 C 41.191406 13.71875 41.355469 13.039062 41.6875 12.503906 C 42.023438 11.964844 42.519531 11.542969 43.171875 11.242188 C 43.824219 10.9375 44.761719 10.71875 45.984375 10.59375 L 48.410156 10.355469 L 48.410156 9.84375 C 48.410156 9.191406 48.214844 8.75 47.828125 8.515625 C 47.4375 8.277344 46.875 8.15625 46.132812 8.15625 C 45.519531 8.15625 44.992188 8.261719 44.546875 8.46875 C 44.109375 8.667969 43.78125 8.960938 43.570312 9.34375 L 41.363281 7.917969 C 41.753906 7.261719 42.359375 6.753906 43.183594 6.40625 C 44.007812 6.054688 45.003906 5.878906 46.167969 5.878906 C 47.957031 5.878906 49.253906 6.199219 50.046875 6.828125 C 50.835938 7.464844 51.234375 8.5 51.234375 9.929688 L 51.234375 17.804688 Z M 48.410156 12.429688 L 46.972656 12.554688 C 45.957031 12.648438 45.222656 12.84375 44.769531 13.140625 C 44.324219 13.441406 44.101562 13.898438 44.101562 14.503906 C 44.101562 15.03125 44.242188 15.390625 44.535156 15.59375 C 44.832031 15.785156 45.21875 15.878906 45.699219 15.878906 C 46.046875 15.878906 46.460938 15.773438 46.949219 15.554688 C 47.445312 15.339844 47.929688 15.03125 48.410156 14.628906 Z M 48.410156 12.429688 "/>
<g clip-path="url(#clip1)" clip-rule="nonzero">
<path style=" stroke:none;fill-rule:nonzero;fill:rgb(100%,100%,100%);fill-opacity:1;" d="M 61.257812 9.003906 C 60.960938 8.855469 60.570312 8.78125 60.09375 8.78125 C 59.5625 8.78125 59.066406 8.910156 58.59375 9.167969 C 58.125 9.417969 57.640625 9.785156 57.148438 10.265625 L 57.148438 17.804688 L 54.324219 17.804688 L 54.324219 6.21875 L 57.148438 6.21875 L 57.148438 7.867188 C 57.625 7.34375 58.140625 6.910156 58.695312 6.566406 C 59.253906 6.21875 59.878906 6.042969 60.5625 6.042969 C 61.148438 6.042969 61.566406 6.117188 61.816406 6.265625 Z M 61.257812 9.003906 "/>
</g>
</g>
</svg>
