<?xml version="1.0" encoding="UTF-8"?>
<svg xmlns="http://www.w3.org/2000/svg" xmlns:xlink="http://www.w3.org/1999/xlink" width="64px" height="24px" viewBox="0 0 63 24" version="1.1">
<defs>
<clipPath id="clip1">
  <path d="M 54 5.601562 L 61.792969 5.601562 L 61.792969 18 L 54 18 Z M 54 5.601562 "/>
</clipPath>
</defs>
<g id="surface1">
<path style=" stroke:none;fill-rule:nonzero;fill:rgb(20.392157%,24.313725%,31.764706%);fill-opacity:1;" d="M 2.714844 17.6875 L 2.714844 2.402344 L 12.546875 2.402344 L 12.546875 5.152344 L 5.800781 5.152344 L 5.800781 8.414062 L 11.484375 8.414062 L 11.484375 11.175781 L 5.800781 11.175781 L 5.800781 14.839844 L 12.546875 14.839844 L 12.546875 17.6875 Z M 2.714844 17.6875 "/>
<path style=" stroke:none;fill-rule:nonzero;fill:rgb(20.392157%,24.313725%,31.764706%);fill-opacity:1;" d="M 22.765625 17.6875 L 22.765625 16.5625 C 22.238281 17.011719 21.679688 17.371094 21.097656 17.636719 C 20.515625 17.894531 19.859375 18.027344 19.113281 18.027344 C 17.667969 18.027344 16.5625 17.5 15.796875 16.449219 C 15.027344 15.402344 14.644531 13.914062 14.644531 11.988281 C 14.644531 10.023438 15.066406 8.496094 15.90625 7.402344 C 16.75 6.308594 17.933594 5.761719 19.460938 5.761719 C 20.007812 5.761719 20.558594 5.875 21.121094 6.101562 C 21.691406 6.324219 22.164062 6.613281 22.542969 6.964844 L 22.542969 1.238281 L 25.367188 1.238281 L 25.367188 17.6875 Z M 22.542969 9.3125 C 22.238281 9.039062 21.863281 8.796875 21.417969 8.589844 C 20.976562 8.382812 20.53125 8.277344 20.082031 8.277344 C 19.320312 8.277344 18.710938 8.605469 18.25 9.261719 C 17.785156 9.921875 17.554688 10.8125 17.554688 11.9375 C 17.554688 13.058594 17.742188 13.933594 18.113281 14.5625 C 18.488281 15.199219 19.078125 15.511719 19.871094 15.511719 C 20.332031 15.511719 20.804688 15.40625 21.292969 15.1875 C 21.78125 14.972656 22.199219 14.707031 22.542969 14.386719 Z M 22.542969 9.3125 "/>
<path style=" stroke:none;fill-rule:nonzero;fill:rgb(20.392157%,24.313725%,31.764706%);fill-opacity:1;" d="M 38.683594 17.464844 C 38.683594 19.011719 38.214844 20.164062 37.273438 20.914062 C 36.332031 21.667969 34.820312 22.050781 32.742188 22.050781 C 31.023438 22.050781 29.523438 21.71875 28.234375 21.0625 L 29.074219 18.726562 C 30.265625 19.28125 31.484375 19.5625 32.742188 19.5625 C 33.90625 19.5625 34.714844 19.390625 35.167969 19.050781 C 35.628906 18.714844 35.863281 18.152344 35.863281 17.351562 L 35.863281 16.402344 C 34.921875 17.261719 33.789062 17.6875 32.46875 17.6875 C 31.074219 17.6875 29.96875 17.183594 29.164062 16.164062 C 28.359375 15.148438 27.960938 13.683594 27.960938 11.777344 C 27.960938 10.585938 28.148438 9.535156 28.519531 8.625 C 28.898438 7.71875 29.449219 7.011719 30.179688 6.511719 C 30.902344 6.011719 31.78125 5.761719 32.816406 5.761719 C 33.414062 5.761719 34.019531 5.902344 34.625 6.175781 C 35.234375 6.445312 35.742188 6.78125 36.144531 7.1875 L 36.519531 6.101562 L 38.683594 6.101562 Z M 35.863281 9.3125 C 35.085938 8.621094 34.238281 8.277344 33.324219 8.277344 C 32.636719 8.277344 32.054688 8.59375 31.578125 9.226562 C 31.105469 9.859375 30.871094 10.699219 30.871094 11.738281 C 30.871094 12.914062 31.082031 13.78125 31.503906 14.339844 C 31.925781 14.898438 32.46875 15.175781 33.136719 15.175781 C 34.070312 15.175781 34.976562 14.796875 35.863281 14.039062 Z M 35.863281 9.3125 "/>
<path style=" stroke:none;fill-rule:nonzero;fill:rgb(20.392157%,24.313725%,31.764706%);fill-opacity:1;" d="M 48.632812 17.6875 L 48.632812 16.488281 C 47.519531 17.511719 46.320312 18.027344 45.042969 18.027344 C 43.78125 18.027344 42.820312 17.691406 42.171875 17.027344 C 41.515625 16.351562 41.191406 15.484375 41.191406 14.425781 C 41.191406 13.601562 41.355469 12.921875 41.6875 12.386719 C 42.023438 11.847656 42.519531 11.425781 43.171875 11.125 C 43.824219 10.820312 44.761719 10.601562 45.984375 10.476562 L 48.410156 10.238281 L 48.410156 9.726562 C 48.410156 9.074219 48.214844 8.636719 47.828125 8.402344 C 47.4375 8.160156 46.875 8.039062 46.132812 8.039062 C 45.519531 8.039062 44.992188 8.144531 44.546875 8.351562 C 44.109375 8.550781 43.78125 8.84375 43.570312 9.226562 L 41.363281 7.800781 C 41.753906 7.144531 42.359375 6.636719 43.183594 6.289062 C 44.007812 5.9375 45.003906 5.761719 46.167969 5.761719 C 47.957031 5.761719 49.253906 6.082031 50.046875 6.714844 C 50.835938 7.347656 51.234375 8.382812 51.234375 9.8125 L 51.234375 17.6875 Z M 48.410156 12.3125 L 46.972656 12.4375 C 45.957031 12.53125 45.222656 12.726562 44.769531 13.027344 C 44.324219 13.324219 44.101562 13.78125 44.101562 14.386719 C 44.101562 14.914062 44.242188 15.277344 44.535156 15.476562 C 44.832031 15.667969 45.21875 15.761719 45.699219 15.761719 C 46.046875 15.761719 46.460938 15.65625 46.949219 15.4375 C 47.445312 15.222656 47.929688 14.914062 48.410156 14.511719 Z M 48.410156 12.3125 "/>
<g clip-path="url(#clip1)" clip-rule="nonzero">
<path style=" stroke:none;fill-rule:nonzero;fill:rgb(20.392157%,24.313725%,31.764706%);fill-opacity:1;" d="M 61.257812 8.886719 C 60.960938 8.738281 60.570312 8.664062 60.09375 8.664062 C 59.5625 8.664062 59.066406 8.792969 58.59375 9.050781 C 58.125 9.300781 57.640625 9.667969 57.148438 10.152344 L 57.148438 17.6875 L 54.324219 17.6875 L 54.324219 6.101562 L 57.148438 6.101562 L 57.148438 7.75 C 57.625 7.226562 58.140625 6.792969 58.695312 6.449219 C 59.253906 6.101562 59.878906 5.925781 60.5625 5.925781 C 61.148438 5.925781 61.566406 6 61.816406 6.152344 Z M 61.257812 8.886719 "/>
</g>
</g>
</svg>
