<svg xmlns="http://www.w3.org/2000/svg" xmlns:xlink="http://www.w3.org/1999/xlink" width="106" zoomAndPan="magnify" viewBox="0 0 79.5 30.000001" height="40" preserveAspectRatio="xMidYMid meet" version="1.0"><defs><g/></defs><g fill="#343e51" fill-opacity="1"><g transform="translate(15.295795, 19.963692)"><g><path d="M 1.3125 0 L 1.3125 -12.171875 L 9.234375 -12.171875 L 9.234375 -9.984375 L 3.796875 -9.984375 L 3.796875 -7.390625 L 8.375 -7.390625 L 8.375 -5.1875 L 3.796875 -5.1875 L 3.796875 -2.265625 L 9.234375 -2.265625 L 9.234375 0 Z M 1.3125 0 "/></g></g></g><g fill="#343e51" fill-opacity="1"><g transform="translate(25.399037, 19.963692)"><g><path d="M 7.34375 0 L 7.34375 -0.890625 C 6.914062 -0.535156 6.46875 -0.253906 6 -0.046875 C 5.53125 0.160156 4.992188 0.265625 4.390625 0.265625 C 3.234375 0.265625 2.347656 -0.148438 1.734375 -0.984375 C 1.117188 -1.828125 0.8125 -3.015625 0.8125 -4.546875 C 0.8125 -6.109375 1.148438 -7.320312 1.828125 -8.1875 C 2.503906 -9.050781 3.457031 -9.484375 4.6875 -9.484375 C 5.113281 -9.484375 5.554688 -9.394531 6.015625 -9.21875 C 6.472656 -9.039062 6.851562 -8.816406 7.15625 -8.546875 L 7.15625 -13.09375 L 9.421875 -13.09375 L 9.421875 0 Z M 7.15625 -6.671875 C 6.914062 -6.890625 6.617188 -7.082031 6.265625 -7.25 C 5.910156 -7.414062 5.546875 -7.5 5.171875 -7.5 C 4.554688 -7.5 4.066406 -7.234375 3.703125 -6.703125 C 3.335938 -6.179688 3.15625 -5.472656 3.15625 -4.578125 C 3.15625 -3.691406 3.304688 -2.992188 3.609375 -2.484375 C 3.910156 -1.984375 4.375 -1.734375 5 -1.734375 C 5.375 -1.734375 5.753906 -1.816406 6.140625 -1.984375 C 6.535156 -2.160156 6.875 -2.375 7.15625 -2.625 Z M 7.15625 -6.671875 "/></g></g></g><g fill="#343e51" fill-opacity="1"><g transform="translate(36.100208, 19.963692)"><g><path d="M 9.421875 -0.171875 C 9.421875 1.054688 9.039062 1.96875 8.28125 2.5625 C 7.53125 3.164062 6.316406 3.46875 4.640625 3.46875 C 3.265625 3.46875 2.0625 3.207031 1.03125 2.6875 L 1.703125 0.828125 C 2.648438 1.273438 3.628906 1.5 4.640625 1.5 C 5.578125 1.5 6.226562 1.363281 6.59375 1.09375 C 6.96875 0.820312 7.15625 0.367188 7.15625 -0.265625 L 7.15625 -1.03125 C 6.40625 -0.34375 5.5 0 4.4375 0 C 3.3125 0 2.425781 -0.398438 1.78125 -1.203125 C 1.132812 -2.015625 0.8125 -3.179688 0.8125 -4.703125 C 0.8125 -5.648438 0.960938 -6.484375 1.265625 -7.203125 C 1.566406 -7.929688 2.007812 -8.492188 2.59375 -8.890625 C 3.175781 -9.285156 3.878906 -9.484375 4.703125 -9.484375 C 5.191406 -9.484375 5.675781 -9.375 6.15625 -9.15625 C 6.644531 -8.945312 7.054688 -8.679688 7.390625 -8.359375 L 7.6875 -9.234375 L 9.421875 -9.234375 Z M 7.15625 -6.671875 C 6.53125 -7.222656 5.851562 -7.5 5.125 -7.5 C 4.570312 -7.5 4.101562 -7.242188 3.71875 -6.734375 C 3.34375 -6.234375 3.15625 -5.566406 3.15625 -4.734375 C 3.15625 -3.796875 3.320312 -3.101562 3.65625 -2.65625 C 3.988281 -2.21875 4.425781 -2 4.96875 -2 C 5.71875 -2 6.445312 -2.300781 7.15625 -2.90625 Z M 7.15625 -6.671875 "/></g></g></g><g fill="#343e51" fill-opacity="1"><g transform="translate(46.80138, 19.963692)"><g><path d="M 6.71875 0 L 6.71875 -0.953125 C 5.820312 -0.140625 4.859375 0.265625 3.828125 0.265625 C 2.816406 0.265625 2.046875 0 1.515625 -0.53125 C 0.992188 -1.070312 0.734375 -1.757812 0.734375 -2.59375 C 0.734375 -3.25 0.867188 -3.789062 1.140625 -4.21875 C 1.410156 -4.644531 1.804688 -4.976562 2.328125 -5.21875 C 2.847656 -5.46875 3.601562 -5.644531 4.59375 -5.75 L 6.53125 -5.921875 L 6.53125 -6.34375 C 6.53125 -6.851562 6.375 -7.203125 6.0625 -7.390625 C 5.757812 -7.585938 5.304688 -7.6875 4.703125 -7.6875 C 4.210938 -7.6875 3.789062 -7.601562 3.4375 -7.4375 C 3.082031 -7.28125 2.816406 -7.046875 2.640625 -6.734375 L 0.875 -7.875 C 1.1875 -8.394531 1.671875 -8.789062 2.328125 -9.0625 C 2.992188 -9.34375 3.796875 -9.484375 4.734375 -9.484375 C 6.171875 -9.484375 7.207031 -9.234375 7.84375 -8.734375 C 8.488281 -8.234375 8.8125 -7.410156 8.8125 -6.265625 L 8.8125 0 Z M 6.53125 -4.28125 L 5.390625 -4.171875 C 4.566406 -4.109375 3.972656 -3.953125 3.609375 -3.703125 C 3.253906 -3.460938 3.078125 -3.101562 3.078125 -2.625 C 3.078125 -2.207031 3.191406 -1.921875 3.421875 -1.765625 C 3.660156 -1.609375 3.972656 -1.53125 4.359375 -1.53125 C 4.640625 -1.53125 4.976562 -1.613281 5.375 -1.78125 C 5.769531 -1.957031 6.15625 -2.207031 6.53125 -2.53125 Z M 6.53125 -4.28125 "/></g></g></g><g fill="#343e51" fill-opacity="1"><g transform="translate(56.816691, 19.963692)"><g><path d="M 6.84375 -7.015625 C 6.601562 -7.128906 6.289062 -7.1875 5.90625 -7.1875 C 5.488281 -7.1875 5.085938 -7.082031 4.703125 -6.875 C 4.328125 -6.675781 3.941406 -6.382812 3.546875 -6 L 3.546875 0 L 1.28125 0 L 1.28125 -9.234375 L 3.546875 -9.234375 L 3.546875 -7.90625 C 3.929688 -8.332031 4.347656 -8.679688 4.796875 -8.953125 C 5.242188 -9.234375 5.742188 -9.375 6.296875 -9.375 C 6.765625 -9.375 7.097656 -9.3125 7.296875 -9.1875 Z M 6.84375 -7.015625 "/></g></g></g></svg>